<?xml version="1.0" encoding="UTF-8" standalone="no"?>
<svg
   xmlns:dc="http://purl.org/dc/elements/1.1/"
   xmlns:cc="http://creativecommons.org/ns#"
   xmlns:rdf="http://www.w3.org/1999/02/22-rdf-syntax-ns#"
   xmlns:svg="http://www.w3.org/2000/svg"
   xmlns="http://www.w3.org/2000/svg"
   xmlns:sodipodi="http://sodipodi.sourceforge.net/DTD/sodipodi-0.dtd"
   xmlns:inkscape="http://www.inkscape.org/namespaces/inkscape"
   sodipodi:docname="ett.svg"
   inkscape:version="1.1-dev (ddb55ca, 2020-02-02)"
   id="svg620"
   version="1.1"
   viewBox="0 0 20.112474 20.112474"
   height="20.112474mm"
   width="20.112474mm">
  <defs
     id="defs614" />
  <sodipodi:namedview
     inkscape:window-maximized="0"
     inkscape:window-y="23"
     inkscape:window-x="0"
     inkscape:window-height="787"
     inkscape:window-width="1251"
     fit-margin-bottom="0"
     fit-margin-right="0"
     fit-margin-left="0"
     fit-margin-top="0"
     showgrid="false"
     inkscape:current-layer="layer1"
     inkscape:document-units="mm"
     inkscape:cy="113.73338"
     inkscape:cx="-32.933642"
     inkscape:zoom="1.4726721"
     inkscape:pageshadow="2"
     inkscape:pageopacity="0.0"
     borderopacity="1.0"
     bordercolor="#666666"
     pagecolor="#ffffff"
     id="base" />
  <metadata
     id="metadata617">
    <rdf:RDF>
      <cc:Work
         rdf:about="">
        <dc:format>image/svg+xml</dc:format>
        <dc:type
           rdf:resource="http://purl.org/dc/dcmitype/StillImage" />
        <dc:title></dc:title>
      </cc:Work>
    </rdf:RDF>
  </metadata>
  <g
     transform="translate(-89.702655,-4.270158)"
     id="layer1"
     inkscape:groupmode="layer"
     inkscape:label="Layer 1">
    <g
       id="g9410"
       transform="matrix(1.5558759,0,0,1.5558759,-17.057279,-144.06254)">
      <g
         transform="translate(511.71343,-434.1284)"
         id="g9408">
        <circle
           style="display:inline;fill:#e5ff80;stroke:#000000;stroke-width:0.264583"
           id="circle9404"
           cx="-436.63278"
           cy="535.92889"
           r="6.3311014" />
        <path
           inkscape:connector-curvature="0"
           d="m -436.72319,532.633 v 1.31338 h -3.50233 v 2.46722 a 3.0644759,3.0644759 0 0 0 1.15014,2.393 l 1.03882,0.83106 1.03882,-0.83106 a 3.062786,3.062786 0 0 0 1.06013,-1.66478 l -2e-5,10e-5 a 3.0503791,3.0503791 0 0 0 0.36457,0.35132 l 1.03882,0.83105 1.03882,-0.83107 a 3.0644759,3.0644759 0 0 0 1.15014,-2.39299 V 532.633 Z m -1.31337,5.2535 a 1.3133731,1.3133731 0 0 1 -1.31337,-1.31338 h 2.62674 a 1.3133731,1.3133731 0 0 1 -1.31337,1.31338 z m 2.18895,-1.75117 a 1.3133731,1.3133731 0 0 1 2.62674,0 z"
           id="path9406"
           style="display:inline;stroke-width:0.437791" />
      </g>
    </g>
  </g>
</svg>
