<?xml version="1.0" encoding="UTF-8" standalone="no"?>
<svg
   xmlns:dc="http://purl.org/dc/elements/1.1/"
   xmlns:cc="http://creativecommons.org/ns#"
   xmlns:rdf="http://www.w3.org/1999/02/22-rdf-syntax-ns#"
   xmlns:svg="http://www.w3.org/2000/svg"
   xmlns="http://www.w3.org/2000/svg"
   xmlns:sodipodi="http://sodipodi.sourceforge.net/DTD/sodipodi-0.dtd"
   xmlns:inkscape="http://www.inkscape.org/namespaces/inkscape"
   width="20.112474mm"
   height="20.112474mm"
   viewBox="0 0 20.112474 20.112474"
   version="1.1"
   id="svg620"
   inkscape:version="0.92.4 (5da689c313, 2019-01-14)"
   sodipodi:docname="gs_flip.svg">
  <defs
     id="defs614" />
  <sodipodi:namedview
     id="base"
     pagecolor="#ffffff"
     bordercolor="#666666"
     borderopacity="1.0"
     inkscape:pageopacity="0.0"
     inkscape:pageshadow="2"
     inkscape:zoom="1.4726721"
     inkscape:cx="-193.24143"
     inkscape:cy="152.38367"
     inkscape:document-units="mm"
     inkscape:current-layer="layer1"
     showgrid="false"
     fit-margin-top="0"
     fit-margin-left="0"
     fit-margin-right="0"
     fit-margin-bottom="0"
     inkscape:window-width="1251"
     inkscape:window-height="787"
     inkscape:window-x="0"
     inkscape:window-y="23"
     inkscape:window-maximized="0" />
  <metadata
     id="metadata617">
    <rdf:RDF>
      <cc:Work
         rdf:about="">
        <dc:format>image/svg+xml</dc:format>
        <dc:type
           rdf:resource="http://purl.org/dc/dcmitype/StillImage" />
        <dc:title />
      </cc:Work>
    </rdf:RDF>
  </metadata>
  <g
     inkscape:label="Layer 1"
     inkscape:groupmode="layer"
     id="layer1"
     transform="translate(-66.001777,5.9560661)">
    <circle
       style="display:inline;fill:#ffffff;stroke:#808080;stroke-width:0.52916667;stroke-opacity:1;stroke-miterlimit:4;stroke-dasharray:none"
       id="circle9472"
       cx="76.058014"
       cy="4.1001711"
       r="9.8504086" />
    <g
       transform="matrix(0.47815446,0,0,0.47815446,105.10379,-25.41412)"
       id="g9492"
       style="display:inline;stroke:#808080;stroke-opacity:1;fill:none;stroke-width:1.10668562;stroke-miterlimit:4;stroke-dasharray:none">
      <path
         inkscape:connector-curvature="0"
         style="fill:none;stroke-width:1.10668562;stroke:#808080;stroke-opacity:1;stroke-miterlimit:4;stroke-dasharray:none"
         d="m -67.263729,59.4348 c -2.81702,-0.755121 -5.71341,0.917311 -6.46827,3.734329 -0.75485,2.817019 0.91758,5.713413 3.7346,6.468269 2.81675,0.755121 5.71341,-0.917575 6.46826,-3.734329 0.75486,-2.817283 -0.91757,-5.713942 -3.73459,-6.468269 z m 0.12436,0.998009 c 0.86439,0.314589 1.5748,0.880798 2.07353,1.593056 l -2.30187,1.328737 c -0.1307,-0.141023 -0.28522,-0.259291 -0.46038,-0.35216 z m -0.80487,-0.212461 c 0.004,5.29e-4 0.008,0.0029 0.0116,0.0029 l -0.69082,2.5781 c -0.18891,-0.0013 -0.37412,0.02778 -0.54901,0.08493 l -1.329,-2.30214 c 0.77602,-0.3667 1.6629,-0.509046 2.55746,-0.364319 v 5.29e-4 z m 3.28719,2.513542 c 0.35216,0.777346 0.47572,1.661583 0.31908,2.551377 l -2.56989,-0.688446 c 0.006,-0.179917 -0.0161,-0.356394 -0.063,-0.524669 z m -6.54818,-1.732756 1.33536,2.312723 c -0.11774,0.118533 -0.21749,0.257439 -0.29766,0.40931 l -2.56963,-0.68871 c 0.30585,-0.840317 0.84799,-1.536965 1.53193,-2.033323 z m -1.74069,2.823633 2.57863,0.690827 c -5.3e-4,0.18124 0.0251,0.358775 0.0778,0.528373 l -2.30849,1.330325 c -0.36116,-0.7747 -0.4953,-1.658937 -0.34793,-2.549525 z m 5.81501,1.557867 2.57837,0.690827 c -0.32068,0.853546 -0.88847,1.55575 -1.59809,2.047081 l -1.329,-2.301875 c 0.13785,-0.12356 0.25506,-0.270933 0.34872,-0.436033 z m -2.74161,0.362214 c 0.11192,0.1143 0.23918,0.21299 0.38179,0.293159 l -0.69082,2.578629 c -0.82841,-0.312209 -1.51554,-0.855134 -2.00396,-1.5367 z m 1.67428,0.464079 1.33535,2.312988 c -0.77178,0.343958 -1.6465,0.465402 -2.52703,0.310092 l 0.68845,-2.569898 c 0.1725,0.0066 0.34078,-0.01032 0.50323,-0.05318 z"
         id="path9474" />
      <path
         inkscape:connector-curvature="0"
         style="fill:none;stroke-width:1.10668562;stroke:#808080;stroke-opacity:1;stroke-miterlimit:4;stroke-dasharray:none"
         d="m -57.837149,59.548836 c -2.69505,1.115748 -3.97537,4.205287 -2.86015,6.900068 1.11575,2.694517 4.20529,3.9751 6.90007,2.859882 2.69425,-1.115484 3.97483,-4.205552 2.85962,-6.899804 -1.11522,-2.695046 -4.20529,-3.975365 -6.89954,-2.860146 z m 0.70564,0.716756 c 0.87762,-0.27649 1.7862,-0.259292 2.61514,0.0021 l -1.01785,2.455598 c -0.18944,-0.03281 -0.38391,-0.03281 -0.57944,7.93e-4 z m -0.76756,0.321204 c 0.004,-0.0024 0.008,-0.0032 0.0111,-0.0053 l 1.02103,2.466711 c -0.15081,0.113506 -0.28019,0.249237 -0.38417,0.401373 l -2.45534,-1.017852 c 0.39238,-0.763323 1.00939,-1.41605 1.80737,-1.84494 z m 4.13809,-0.0061 c 0.75274,0.402431 1.38906,1.028964 1.80551,1.830387 l -2.45771,1.017323 c -0.10478,-0.14605 -0.22966,-0.272521 -0.36936,-0.377825 z m -6.25052,2.610114 2.46724,1.022615 c -0.0209,0.165629 -0.0161,0.336285 0.013,0.505354 l -2.45824,1.018117 c -0.26856,-0.853282 -0.26247,-1.735932 -0.022,-2.546086 z m 0.33734,3.299884 2.46645,-1.020763 c 0.10954,0.144198 0.23812,0.269611 0.38312,0.37174 l -1.02182,2.460889 c -0.75777,-0.395552 -1.40283,-1.015471 -1.82775,-1.811866 z m 5.56207,-2.302669 2.46645,-1.020763 c 0.26485,0.872332 0.24183,1.775355 -0.0222,2.596886 l -2.45533,-1.017837 c 0.0339,-0.182298 0.037,-0.370152 0.0111,-0.558271 z m -1.955,1.9558 c 0.15822,0.02249 0.31962,0.02328 0.4818,2.64e-4 l 1.02103,2.466446 c -0.84746,0.256646 -1.72323,0.244211 -2.52545,5.29e-4 z m 1.61105,-0.650611 2.4675,1.022615 c -0.40322,0.74295 -1.02367,1.371335 -1.81663,1.783556 l -1.01759,-2.457714 c 0.14076,-0.09948 0.26379,-0.215636 0.36672,-0.348457 z"
         id="path9476" />
      <path
         inkscape:connector-curvature="0"
         style="fill:none;stroke-width:1.10668562;stroke:#808080;stroke-opacity:1;stroke-miterlimit:4;stroke-dasharray:none"
         d="m -72.671019,58.741592 v 1.649412 c 0.81386,-0.878945 1.91188,-1.46341 3.10647,-1.649412 z m 4.75589,0 c 0.18494,0.02858 0.37094,0.06588 0.55589,0.115094 1.14511,0.304006 2.10317,0.955939 2.7887,1.80975 h 4.44104 c 0.5453,-0.682361 1.26894,-1.241425 2.13809,-1.598084 0.37651,-0.154252 0.76015,-0.261408 1.14565,-0.326495 h -11.06937 z"
         id="path9478" />
      <path
         inkscape:connector-curvature="0"
         style="fill:none;stroke-width:1.10668562;stroke:#808080;stroke-opacity:1;stroke-miterlimit:4;stroke-dasharray:none"
         d="m -54.412119,57.009629 v 1.976173 c 1.12977,0.25109 2.16773,0.866511 2.92391,1.776413 1.10066,-1.25095 1.6883,-2.5019 0.87445,-3.752586 z"
         id="path9480" />
      <path
         inkscape:connector-curvature="0"
         style="fill:none;stroke-width:1.10668562;stroke:#808080;stroke-opacity:1;stroke-miterlimit:4;stroke-dasharray:none"
         d="m -50.203919,49.216063 c 0,0.717285 -0.58129,1.29884 -1.29884,1.29884 -0.71729,0 -1.29884,-0.581555 -1.29884,-1.29884 0,-0.717285 0.58155,-1.299104 1.29884,-1.299104 0.71755,0 1.29884,0.581554 1.29884,1.299104 z"
         id="path9482" />
      <path
         inkscape:connector-curvature="0"
         style="fill:none;stroke-width:1.10668562;stroke:#808080;stroke-opacity:1;stroke-miterlimit:4;stroke-dasharray:none"
         d="m -48.024819,60.121394 -0.65087,-0.175683 c 0.0249,-0.05556 0.0408,-0.115094 0.0516,-0.178329 l 0.43868,-2.602971 c 0.0259,-0.151871 0.004,-0.300302 -0.0545,-0.426773 0.022,-0.04392 0.037,-0.0926 0.0489,-0.142346 0.0812,-0.353483 -0.15637,-0.706173 -0.53314,-0.792956 l -2.05793,-0.475192 v -1.800489 l 2.78739,-1.144059 c 0.32067,-0.131762 0.47334,-0.496623 0.3421,-0.817298 -0.0661,-0.160337 -0.1905,-0.27887 -0.33866,-0.340783 l -1.41473,-4.756679 c -0.0606,-0.203729 -0.21802,-0.33655 -0.3519,-0.296863 -0.13388,0.03969 -0.19314,0.237067 -0.13282,0.441061 l 1.37742,4.62915 -2.26853,0.932392 v -0.166423 c 0,-0.772848 -0.62257,-1.395148 -1.39515,-1.395148 -0.77312,0 -1.39542,0.6223 -1.39542,1.395148 v 3.365764 c 0,0.772848 0.62257,1.395148 1.39542,1.395148 0.28998,0 0.55827,-0.08599 0.78078,-0.236273 l 1.91876,0.438944 -0.43577,2.578893 c -0.0511,0.305594 0.0907,0.592667 0.33311,0.726282 0.0217,0.207962 0.24607,0.417248 0.56304,0.502443 l 0.76305,0.205582 c 0.3728,0.100541 0.72523,-0.01217 0.78952,-0.25109 0.0643,-0.238919 -0.18706,-0.511439 -0.56039,-0.611452 z"
         id="path9484" />
      <path
         inkscape:connector-curvature="0"
         style="fill:none;stroke-width:1.10668562;stroke:#808080;stroke-opacity:1;stroke-miterlimit:4;stroke-dasharray:none"
         d="m -68.996749,46.136842 -3.5777,1.122892 v 0.801952 c 0,0.346604 0.29263,0.626533 0.65485,0.626533 h 17.40826 l 1.95157,-1.924843 c 0,-0.346605 -0.29263,-0.626534 -0.65485,-0.626534 z"
         id="path9486" />
      <path
         inkscape:connector-curvature="0"
         style="fill:none;stroke-width:1.10668562;stroke:#808080;stroke-opacity:1;stroke-miterlimit:4;stroke-dasharray:none"
         d="m -72.406439,48.975557 h 17.65618 c 0.14631,0 0.26458,0.118533 0.26458,0.264583 v 0 c 0,0.146315 -0.11827,0.264583 -0.26458,0.264583 h -17.65618 c -0.14605,0 -0.26458,-0.118268 -0.26458,-0.264583 v 0 c 0,-0.146314 0.11853,-0.264583 0.26458,-0.264583 z"
         id="path9488" />
      <path
         inkscape:connector-curvature="0"
         style="fill:none;stroke-width:1.10668562;stroke:#808080;stroke-opacity:1;stroke-miterlimit:4;stroke-dasharray:none"
         d="m -55.226769,49.792855 h -16.7984 c -0.35692,0 -0.64532,0.280193 -0.64532,0.626533 v 7.360444 c 0,0.346868 0.2884,0.623358 0.64532,0.623358 h 16.79866 c 0.35719,0 0.64532,-0.276754 0.64532,-0.623358 v -7.360179 c 0,-0.346605 -0.2884,-0.626798 -0.64558,-0.626798 z m -0.39582,6.159235 c 0,1.27926 -1.06125,2.309548 -2.37887,2.309548 -1.31763,0 -2.3786,-1.030023 -2.3786,-2.309548 v -2.935817 c 0,-1.27926 1.06097,-2.309283 2.3786,-2.309283 1.31762,0 2.37887,1.030023 2.37887,2.309283 z"
         id="path9490" />
    </g>
    <g
       aria-label="G"
       id="text9496"
       style="font-style:normal;font-variant:normal;font-weight:normal;font-stretch:normal;font-size:4.39102000000000015px;line-height:1.25;font-family:'League Spartan';-inkscape-font-specification:'League Spartan';letter-spacing:0px;word-spacing:0px;display:inline;fill:#808080;fill-opacity:1;stroke:none;stroke-width:0.411658;stroke-opacity:1">
      <path
         d="m 77.099312,10.432928 h -1.672978 v 0.636698 h 0.834293 c 0,0.443493 -0.3908,0.698172 -0.785992,0.698172 -0.509359,0 -0.922114,-0.500576 -0.922114,-1.115319 0,-0.627916 0.412755,-1.132883 0.922114,-1.132883 0.320544,0 0.597178,0.1273396 0.807947,0.4654481 L 76.822678,9.3922565 C 76.506524,9.0102377 76.063031,8.7731227 75.426334,8.7731227 c -1.018717,0 -1.76519,0.8386848 -1.76519,1.8793563 0,1.036281 0.790383,1.874966 1.76519,1.874966 0.711345,0 1.475382,-0.390801 1.672978,-1.308524 z"
         style="font-style:normal;font-variant:normal;font-weight:normal;font-stretch:normal;font-family:'League Spartan';-inkscape-font-specification:'League Spartan';stroke-width:0.411658;stroke:none;stroke-opacity:1;fill:#808080"
         id="path2583" />
    </g>
  </g>
</svg>
