<?xml version="1.0" encoding="UTF-8" standalone="no"?>
<svg
   xmlns:dc="http://purl.org/dc/elements/1.1/"
   xmlns:cc="http://creativecommons.org/ns#"
   xmlns:rdf="http://www.w3.org/1999/02/22-rdf-syntax-ns#"
   xmlns:svg="http://www.w3.org/2000/svg"
   xmlns="http://www.w3.org/2000/svg"
   xmlns:sodipodi="http://sodipodi.sourceforge.net/DTD/sodipodi-0.dtd"
   xmlns:inkscape="http://www.inkscape.org/namespaces/inkscape"
   width="20.112474mm"
   height="20.112474mm"
   viewBox="0 0 20.112474 20.112474"
   version="1.1"
   id="svg620"
   inkscape:version="1.1-dev (ddb55ca, 2020-02-02)"
   sodipodi:docname="gw_flip.svg">
  <defs
     id="defs614" />
  <sodipodi:namedview
     id="base"
     pagecolor="#ffffff"
     bordercolor="#666666"
     borderopacity="1.0"
     inkscape:pageopacity="0.0"
     inkscape:pageshadow="2"
     inkscape:zoom="1.4726721"
     inkscape:cx="-124.28251"
     inkscape:cy="171.43329"
     inkscape:document-units="mm"
     inkscape:current-layer="layer1"
     showgrid="false"
     fit-margin-top="0"
     fit-margin-left="0"
     fit-margin-right="0"
     fit-margin-bottom="0"
     inkscape:window-width="1251"
     inkscape:window-height="787"
     inkscape:window-x="0"
     inkscape:window-y="23"
     inkscape:window-maximized="0" />
  <metadata
     id="metadata617">
    <rdf:RDF>
      <cc:Work
         rdf:about="">
        <dc:format>image/svg+xml</dc:format>
        <dc:type
           rdf:resource="http://purl.org/dc/dcmitype/StillImage" />
        <dc:title></dc:title>
      </cc:Work>
    </rdf:RDF>
  </metadata>
  <g
     inkscape:label="Layer 1"
     inkscape:groupmode="layer"
     id="layer1"
     transform="translate(-82.52101,10.996277)">
    <circle
       style="display:inline;fill:none;stroke:#008080;stroke-width:0.411658;stroke-opacity:1"
       id="circle9412"
       cx="92.577248"
       cy="-0.94003963"
       r="9.8504086" />
    <g
       style="font-style:normal;font-variant:normal;font-weight:normal;font-stretch:normal;font-size:15.07740000000000080px;line-height:1.25;font-family:'Destroy Earth BB';-inkscape-font-specification:'Destroy Earth BB';letter-spacing:0px;word-spacing:0px;display:inline;fill:none;fill-opacity:1;stroke:#008080;stroke-width:1.4135;stroke-opacity:1"
       id="text9416"
       aria-label="&amp;">
      <path
         id="path2760"
         style="font-style:normal;font-variant:normal;font-weight:normal;font-stretch:normal;font-family:'Destroy Earth BB';-inkscape-font-specification:'Destroy Earth BB';stroke-width:1.4135;stroke:#008080;stroke-opacity:1;fill:none"
         d="m 97.578192,2.7755849 q 0.01508,0.045232 -0.01508,0.150774 -0.01508,0.090464 0.01508,0.1658514 0.01508,0.075387 -0.03016,0.1356966 -0.04523,0.045232 -0.120619,0.1658514 -0.03016,0.045232 -0.105542,0.06031 -0.07539,0.015077 -0.256316,0.090464 h -0.09046 q -0.03015,-0.030155 -0.06031,-0.045232 -0.01508,-0.030155 -0.04523,-0.06031 -0.03015,-0.015077 -0.07539,-0.045232 -0.03016,-0.030155 -0.09046,-0.06031 -0.06031,-0.030155 -0.135697,-0.090464 -0.04523,-0.030155 -0.105542,-0.075387 -0.06031,-0.030155 -0.135696,-0.075387 -0.06031,-0.06031 -0.150774,-0.1356966 -0.06031,-0.015077 -0.12062,-0.06031 -0.06031,-0.030155 -0.135696,-0.090464 -0.07539,-0.06031 -0.150774,-0.150774 h -0.09047 q -0.04523,0 -0.105541,0 -0.06031,-0.015077 -0.12062,-0.015077 -0.03015,0.030155 -0.06031,0.06031 -0.01508,0.015077 -0.01508,0.030155 -0.03015,0.045232 -0.01508,0.1206192 0.01508,0.075387 -0.06031,0.150774 -0.07539,0.06031 -0.165851,0.1658514 -0.09046,0.1055418 -0.135697,0.1356966 -0.06031,0.030155 -0.120619,0.06031 -0.04523,0.030155 -0.120619,0.075387 -0.06031,0.06031 -0.150774,0.1356966 -0.09046,0.075387 -0.196006,0.1206192 -0.105542,0.045232 -0.226161,0 -0.120619,-0.06031 -0.165852,-0.06031 -0.03015,0 -0.09046,-0.045232 -0.04523,-0.06031 -0.105542,-0.1055418 -0.04523,-0.06031 -0.105542,-0.090464 -0.04523,-0.045232 -0.06031,-0.015077 -0.03015,0.045232 -0.105542,0.1960062 -0.07539,0.150774 -0.150774,0.1809288 -0.09047,0.030155 -0.241239,0 -0.135696,-0.045232 -0.211083,-0.015077 -0.07539,0.030155 -0.211084,0.075387 -0.135696,0.030155 -0.241238,0.06031 -0.09046,0.030155 -0.241239,-0.030155 -0.135696,-0.045232 -0.271393,-0.030155 h -0.165851 v 0.045232 q -0.09046,0.030155 -0.105542,0.030155 -0.04523,-0.015077 -0.150774,-0.030155 -0.09046,0 -0.211084,-0.015077 -0.105541,-0.015077 -0.196006,-0.015077 -0.09046,-0.015077 -0.120619,-0.015077 -0.04523,-0.015077 -0.180929,-0.030155 -0.120619,-0.030155 -0.196006,-0.015077 -0.04523,0 -0.150774,-0.030155 -0.105542,-0.045232 -0.226161,-0.090464 -0.135697,-0.06031 -0.271393,-0.1356966 l -0.211084,0.030155 q -0.07539,0.015077 -0.165851,0.030155 -0.07539,0 -0.105542,0.030155 -0.04523,0.045232 -0.226161,0.030155 -0.180929,-0.015077 -0.316625,0.015077 -0.12062,0.015077 -0.301548,-0.030155 -0.165852,-0.06031 -0.241239,-0.06031 -0.105542,0 -0.241238,-0.045232 -0.07539,-0.015077 -0.150774,-0.045232 -0.03015,-0.015077 -0.07539,-0.06031 -0.03016,-0.030155 -0.09047,-0.075387 -0.04523,-0.045232 -0.09046,-0.1055418 -0.09046,-0.090464 -0.09046,-0.2412384 V 2.8660493 q -0.06031,-0.045232 -0.12062,-0.1055418 -0.04523,-0.045232 -0.09046,-0.090464 -0.04523,-0.045232 -0.04523,-0.090464 -0.03016,-0.075387 -0.09046,-0.1960062 -0.04523,-0.1206192 -0.01508,-0.1960062 0.03015,-0.075387 0.01508,-0.1658514 -0.01508,-0.090464 -0.04523,-0.1356966 -0.01508,-0.045232 0,-0.1809288 0.03016,-0.1356966 0.04523,-0.1960062 0.01508,-0.045232 0,-0.1356966 -0.01508,-0.1055418 -0.04523,-0.1809288 -0.01508,-0.075387 -0.01508,-0.21108359 0,-0.1356966 -0.01508,-0.1960062 -0.01508,-0.0603096 -0.01508,-0.1356966 0,-0.0904644 0.03016,-0.15077401 0,-0.0301548 0.04523,-0.075387 0.04523,-0.0603096 0.09046,-0.1206192 0.06031,-0.0603096 0.12062,-0.1356966 -0.07539,-0.2110836 -0.01508,-0.2864706 0.07539,-0.0904644 0.120619,-0.13569661 0.226161,-0.1809288 0.346781,-0.2563158 0.07539,-0.0603096 0.135696,-0.1055418 0.07539,-0.0301548 0.150774,-0.075387 0.07539,-0.0603096 0.150774,-0.0904644 0.06031,-0.0452322 0.135697,-0.0904644 L 88.8333,-0.99376512 88.290513,-1.2048487 q -0.09046,-0.015077 -0.150774,-0.045232 -0.06031,-0.030155 -0.120619,-0.045232 -0.04523,-0.015077 -0.06031,-0.045232 -0.03015,-0.045232 -0.165851,-0.150774 -0.120619,-0.1055418 -0.180929,-0.1206192 -0.04523,-0.030155 -0.150774,-0.1206192 -0.09046,-0.090464 -0.09046,-0.2110836 0,-0.1206192 0.03016,-0.2110836 0.03015,-0.1055418 0,-0.1809288 -0.03016,-0.075387 -0.12062,-0.2563158 -0.07539,-0.1960062 -0.04523,-0.2563158 0.03015,-0.06031 0,-0.1658514 -0.01508,-0.1055418 0.01508,-0.1658514 0,-0.030155 0.03015,-0.090464 0.04523,-0.06031 0.07539,-0.1356966 l 0.09046,-0.1507741 -0.196006,-0.301548 q 0.03015,-0.045232 0.06031,-0.1055418 0.03016,-0.045232 0.04523,-0.090464 0.03015,-0.06031 0.04523,-0.1055418 0.01508,-0.090464 -0.03016,-0.1658514 -0.03015,-0.090464 0,-0.1658514 0.03016,-0.075387 0.120619,-0.1809288 0.09046,-0.1206192 0.120619,-0.1658514 0.03015,-0.045232 0.03015,-0.1356966 0,-0.090464 0.09046,-0.1658514 0.07539,-0.075387 0.226161,-0.150774 0.150774,-0.075387 0.196007,-0.075387 0.06031,0 0.105541,-0.1055418 0.04523,-0.1055418 0.135697,-0.1658514 0.211084,-0.150774 0.392012,-0.1206192 0.09047,0.030155 0.165852,-0.015077 0.07539,-0.06031 0.150774,-0.090464 0.06031,-0.015077 0.165851,-0.015077 0.105542,0 0.180929,-0.030155 0.226161,-0.015077 0.392012,-0.045232 0.150774,-0.030155 0.286471,-0.045232 0.135697,-0.015077 0.180929,-0.015077 0.135696,0 0.196006,0.030155 0.07539,0.030155 0.105542,0.06031 0.04523,0.030155 0.07539,0.06031 0.03015,0.030155 0.09046,0.045232 0.256316,0.045232 0.361858,-0.06031 0.120619,-0.1206192 0.180929,-0.1206192 0.06031,0 0.105541,0.015077 0.04523,0 0.09046,0 v -0.015077 q 0.07539,0 0.135696,0 0.06031,-0.015077 0.12062,0 0.135696,0.015077 0.256315,0.030155 0.135697,0.015077 0.241239,-0.015077 0.105542,-0.030155 0.226161,0.015077 0.120619,0.030155 0.165851,0.030155 0.01508,0 0.09046,0 0.07539,0 0.165851,-0.015077 0.105542,0 0.226161,-0.015077 0.04523,0.090464 0.07539,0.150774 0.06031,0.150774 0.07539,0.1206192 0,-0.015077 0.04523,-0.045232 0.06031,-0.045232 0.12062,-0.090464 0.06031,-0.06031 0.165851,-0.1055418 l 0.497554,0.045232 0.286471,-0.030155 0.708638,0.2110836 0.301548,0.1658514 q 0.03015,0.06031 0.07539,0.1206192 0.07539,0.1055418 0.07539,0.150774 -0.01508,0.030155 0.06031,0.06031 0.07539,0.015077 0.105542,0.045232 0.03016,0.030155 0.07539,0.1356966 0.06031,0.090464 0.03015,0.1206192 -0.03015,0.030155 0.03016,0.1206192 0.06031,0.075387 0.06031,0.150774 0,0.075387 0.06031,0.1960062 0.06031,0.1206192 0.03016,0.1658514 -0.03016,0.030155 0,0.1356966 0.03015,0.1055418 -0.01508,0.150774 -0.04523,0.045232 -0.105542,0.150774 -0.04523,0.090464 -0.07539,0.1206192 -0.03015,0.030155 0.01508,0.1055418 0.04523,0.075387 0.07539,0.1055418 0.03015,0.030155 0.09046,0.1206193 0.07539,0.075387 0.01508,0.1055418 -0.06031,0.06031 -0.03016,0.1809288 0,0.06031 0.03016,0.1356966 v 0.1809288 q 0,0.075387 -0.01508,0.1356966 0,0.06031 0,0.075387 -0.01508,0.030155 -0.04523,0.1356966 -0.01508,0.090464 -0.01508,0.1206192 0,0.090464 -0.105542,0.1809288 -0.04523,0.045232 -0.150774,0.1206192 -0.105542,0.06031 -0.135697,0.090464 -0.150774,0.1356966 -0.180929,0.2110836 -0.03015,0.075387 -0.06031,0.1055418 -0.07539,0.045232 -0.150774,0.075387 -0.06031,0.030155 -0.120619,0.06031 -0.06031,0.030155 -0.135697,0.030155 -0.03015,0.045232 -0.07539,0.075387 l -0.09046,0.06031 q -0.03015,0 -0.07539,0.030155 -0.03016,0.030155 -0.06031,0.06031 0.03015,0.015077 0.03015,0.030155 0.01508,0 0.04523,0.015077 0.03016,0.030155 0.06031,0.045232 0.03015,0 0.06031,0.030155 l 0.105542,0.030155 q 0,0.015077 0.01508,0.015077 0,0 0.06031,0.030155 0.01508,0.015077 0.03015,0.015077 0.135696,0.0603096 0.226161,0.15077399 0.06031,0.0301548 0.105542,0.0603096 0.06031,0.0301548 0.09046,0.0452322 0.06031,0.0150774 0.105542,0.0301548 0.06031,0 0.09046,0.0301548 0.04523,0.0452322 0.105542,0.0603096 0.06031,0.0150774 0.150774,0.0452322 0.105542,0.0452322 0.211084,0.075387 0.120619,0.0150774 0.180928,0.0452322 0.06031,0.0301548 0.135697,0.0452322 0.09046,0 0.150774,0.0301548 0.06031,0.0301548 0.165851,0.0904644 0.12062,0.0452322 0.211084,0.0904644 0.09046,0.0301548 0.180929,0.0603096 0.105542,0.0301548 0.271393,0.1658514 l 0.03016,0.150774 q 0.01508,0.0603096 0.01508,0.1206192 0,0.0452322 0.01508,0.075387 0.01508,0.0452322 0.01508,0.15077401 0,0.0904644 0,0.1658514 0,0.1960062 0.06031,0.3166254 0.03015,0.0452322 0.01508,0.18092879 0,0.1206192 0.03016,0.1658514 0.01508,0.045232 0,0.1658514 0,0.1055418 0,0.2110836 0,0.1055418 -0.01508,0.226161 -0.01508,0.1206192 0.01508,0.226161 0.01508,0.1055418 -0.01508,0.1809288 -0.01508,0.075387 -0.01508,0.1356966 0,0.06031 0,0.1658514 0,0.090464 0.03016,0.1206192 z M 92.19556,1.1321483 q 0.06031,-0.030155 0.120619,-0.13569659 -0.03016,-0.0452322 -0.09046,-0.1055418 -0.04523,-0.075387 -0.105542,-0.150774 -0.09046,-0.0150774 -0.165852,-0.075387 -0.165851,-0.075387 -0.34678,-0.24123841 -0.06031,-0.0452322 -0.150774,-0.0452322 -0.09046,-0.0150774 -0.165851,-0.0301548 -0.07539,-0.0150774 -0.150774,0 -0.07539,0.0150774 -0.150774,0.0301548 -0.04523,0.0603096 -0.06031,0.13569661 -0.01508,0.075387 -0.01508,0.1658514 0.01508,0.075387 0.09046,0.150774 -0.01508,0.0904644 -0.01508,0.150774 0,0.16585139 0.09046,0.25631579 0.03016,0.030155 0.07539,0.06031 0.06031,0.045232 0.241239,0.045232 0.256315,0.030155 0.422167,-0.045232 0.165851,-0.090464 0.376935,-0.1658514 z m 0.196006,-4.3121364 q 0,-0.015077 -0.03015,-0.075387 -0.01508,-0.030155 -0.04523,-0.045232 0,-0.015077 -0.01508,-0.06031 -0.01508,-0.06031 -0.09046,-0.1507741 -0.135696,-0.1658514 -0.211083,-0.1809288 -0.06031,-0.015077 -0.12062,0.030155 -0.06031,0.045232 -0.150774,0.1055418 -0.09046,0.06031 -0.28647,0.06031 -0.01508,0 -0.135697,0.06031 -0.120619,0.06031 -0.135696,0.075387 l -0.01508,0.226161 q 0.120619,0.1960062 0.165852,0.301548 0.06031,0.1055418 0.09046,0.1356966 0.09046,0.075387 0.165851,0.1206192 0.07539,0.045232 0.135697,0.075387 0.06031,0.045232 0.105542,0.06031 0.105542,0.090464 0.165851,0.1356966 0.07539,0.030155 0.120619,0.06031 h 0.03015 q 0.04523,-0.015077 0.07539,-0.06031 0.04523,-0.045232 0.120619,-0.1356966 0,0 0,-0.06031 -0.01508,-0.015077 -0.01508,-0.045232 v -0.1356966 q 0,-0.030155 0.01508,-0.06031 0,-0.045232 0.03016,-0.075387 0.03015,-0.030155 -0.01508,-0.090464 -0.03015,-0.075387 -0.03015,-0.1055418 0,-0.030155 0.03015,-0.075387 0.03016,-0.06031 0.04523,-0.090464 z" />
    </g>
  </g>
</svg>
