<?xml version="1.0" encoding="UTF-8" standalone="no"?>
<svg
   xmlns:dc="http://purl.org/dc/elements/1.1/"
   xmlns:cc="http://creativecommons.org/ns#"
   xmlns:rdf="http://www.w3.org/1999/02/22-rdf-syntax-ns#"
   xmlns:svg="http://www.w3.org/2000/svg"
   xmlns="http://www.w3.org/2000/svg"
   xmlns:sodipodi="http://sodipodi.sourceforge.net/DTD/sodipodi-0.dtd"
   xmlns:inkscape="http://www.inkscape.org/namespaces/inkscape"
   width="20.112476mm"
   height="20.112494mm"
   viewBox="0 0 20.112476 20.112493"
   version="1.1"
   id="svg620"
   inkscape:version="0.92.4 (5da689c313, 2019-01-14)"
   sodipodi:docname="ka_flip.svg">
  <defs
     id="defs614" />
  <sodipodi:namedview
     id="base"
     pagecolor="#ffffff"
     bordercolor="#666666"
     borderopacity="1.0"
     inkscape:pageopacity="0.0"
     inkscape:pageshadow="2"
     inkscape:zoom="1.4726721"
     inkscape:cx="-182.28536"
     inkscape:cy="142.28956"
     inkscape:document-units="mm"
     inkscape:current-layer="layer1"
     showgrid="false"
     fit-margin-top="0"
     fit-margin-left="0"
     fit-margin-right="0"
     fit-margin-bottom="0"
     inkscape:window-width="1251"
     inkscape:window-height="787"
     inkscape:window-x="0"
     inkscape:window-y="23"
     inkscape:window-maximized="0" />
  <metadata
     id="metadata617">
    <rdf:RDF>
      <cc:Work
         rdf:about="">
        <dc:format>image/svg+xml</dc:format>
        <dc:type
           rdf:resource="http://purl.org/dc/dcmitype/StillImage" />
        <dc:title />
      </cc:Work>
    </rdf:RDF>
  </metadata>
  <g
     inkscape:label="Layer 1"
     inkscape:groupmode="layer"
     id="layer1"
     transform="translate(-69.57082,3.2853318)">
    <g
       transform="matrix(1.5558759,0,0,1.5558759,-29.761813,-114.59142)"
       id="g9464"
       style="stroke:#aa0000;stroke-opacity:1;fill:#ffffff">
      <circle
         r="6.3311014"
         cy="78.002586"
         cx="70.306938"
         id="circle9438"
         style="display:inline;fill:#ffffff;stroke:#aa0000;stroke-width:0.264583;stroke-opacity:1" />
      <g
         style="display:inline;stroke:#aa0000;stroke-opacity:1;fill:#ffffff"
         transform="matrix(0.18801732,0,0,0.18801732,65.929326,72.91983)"
         id="g9448">
        <path
           inkscape:connector-curvature="0"
           d="m 7.0062461,41.26001 4.8599859,8.51001 0.920044,-1.150147 c 2.959961,-3.689941 4.21997,-6.98999 4.21997,-11.020019 V 19 H 7.0062465 Z"
           id="path9440"
           style="stroke:#aa0000;stroke-opacity:1;fill:#ffffff" />
        <path
           inkscape:connector-curvature="0"
           d="M 41.936237,19.619873 41.686237,19 h -18.67999 v 31 h 18.70001 l 0.23999,-0.650146 c 4.070007,-10.969971 4.059998,-19.639893 -0.01001,-29.729981 z"
           id="path9442"
           style="stroke:#aa0000;stroke-opacity:1;fill:#ffffff" />
        <path
           inkscape:connector-curvature="0"
           d="m 30.006247,5.5 c 0,-1.9300537 -1.570008,-3.5 -3.5,-3.5 -1.929993,0 -3.5,1.5699463 -3.5,3.5 v 11.499756 h 7 z"
           id="path9444"
           style="stroke:#aa0000;stroke-opacity:1;fill:#ffffff" />
        <path
           inkscape:connector-curvature="0"
           d="m 14.006247,5.5 c 0,-1.9300537 -1.570008,-3.5 -3.5,-3.5 C 8.5762539,2 7.0062461,3.5699463 7.0062461,5.5 v 11.499756 h 7.0000009 z"
           id="path9446"
           style="stroke:#aa0000;stroke-opacity:1;fill:#ffffff" />
      </g>
      <g
         id="g9462"
         transform="translate(507.432,-435.44579)"
         style="stroke:#aa0000;stroke-opacity:1;fill:#ffffff">
        <circle
           r="6.3311014"
           cy="513.44836"
           cx="-437.12506"
           id="circle9450"
           style="display:inline;fill:#ffffff;stroke:#aa0000;stroke-width:0.264583;stroke-opacity:1" />
        <g
           style="display:inline;stroke:#aa0000;stroke-opacity:1;fill:#ffffff"
           transform="matrix(0.18801732,0,0,0.18801732,-441.50266,508.36561)"
           id="g9460">
          <path
             inkscape:connector-curvature="0"
             d="m 7.0062461,41.26001 4.8599859,8.51001 0.920044,-1.150147 c 2.959961,-3.689941 4.21997,-6.98999 4.21997,-11.020019 V 19 H 7.0062465 Z"
             id="path9452"
             style="stroke:#aa0000;stroke-opacity:1;fill:#ffffff" />
          <path
             inkscape:connector-curvature="0"
             d="M 41.936237,19.619873 41.686237,19 h -18.67999 v 31 h 18.70001 l 0.23999,-0.650146 c 4.070007,-10.969971 4.059998,-19.639893 -0.01001,-29.729981 z"
             id="path9454"
             style="stroke:#aa0000;stroke-opacity:1;fill:#ffffff" />
          <path
             inkscape:connector-curvature="0"
             d="m 30.006247,5.5 c 0,-1.9300537 -1.570008,-3.5 -3.5,-3.5 -1.929993,0 -3.5,1.5699463 -3.5,3.5 v 11.499756 h 7 z"
             id="path9456"
             style="stroke:#aa0000;stroke-opacity:1;fill:#ffffff" />
          <path
             inkscape:connector-curvature="0"
             d="m 14.006247,5.5 c 0,-1.9300537 -1.570008,-3.5 -3.5,-3.5 C 8.5762539,2 7.0062461,3.5699463 7.0062461,5.5 v 11.499756 h 7.0000009 z"
             id="path9458"
             style="stroke:#aa0000;stroke-opacity:1;fill:#ffffff" />
        </g>
      </g>
    </g>
  </g>
</svg>
